<?xml version="1.0"?>
<svg width="600" height="200" xmlns="http://www.w3.org/2000/svg" xmlns:svg="http://www.w3.org/2000/svg" preserveAspectRatio="xMidYMid meet" version="1.0">

 <g class="layer">
  <title>Layer 1</title>
  <g fill="#000000" id="svg_1" transform="matrix(0.1 0 0 -0.1 11 1085)">
   <path d="m2510,10155l0,-215l30,0l30,0l0,215l0,215l-30,0l-30,0l0,-215z" id="svg_2" stroke="rgba(18, 18, 18, 0.58)"/>
   <path d="m390,10145l0,-205l30,0l29,0l3,147l3,147l118,-147c94,-118 122,-147 142,-147l25,0l0,205l0,205l-30,0l-29,0l-3,-147l-3,-147l-118,147c-94,118 -122,147 -142,147l-25,0l0,-205z" id="svg_3" stroke="rgba(18, 18, 18, 0.58)"/>
   <path d="m1863,10341c-51,-13 -81,-38 -92,-76c-20,-75 20,-114 151,-150c87,-23 109,-55 66,-95c-28,-25 -109,-27 -169,-4c-35,14 -42,15 -50,3c-16,-25 -10,-37 29,-52c154,-62 308,11 262,124c-15,36 -45,52 -133,75c-62,15 -107,43 -107,65c0,5 11,21 25,34c19,20 34,25 75,25c28,0 64,-7 81,-15c27,-15 30,-14 36,2c3,10 8,21 10,25c13,25 -124,54 -184,39z" id="svg_4" stroke="rgba(18, 18, 18, 0.58)"/>
   <path d="m927,10236c-69,-26 -97,-66 -97,-143c0,-90 59,-147 155,-147c93,-1 157,60 157,149c0,108 -109,180 -215,141zm120,-61c34,-24 47,-76 29,-118c-17,-42 -41,-57 -94,-57c-58,0 -92,35 -92,95c0,37 5,51 26,70c32,29 97,34 131,10z" id="svg_5" stroke="rgba(18, 18, 18, 0.58)"/>
   <path d="m1220,10095l0,-155l30,0l30,0l0,94c0,87 2,97 26,125c20,25 34,31 64,31c22,0 47,-8 61,-19c22,-18 24,-28 27,-125l4,-106l30,0l31,0l-5,114c-5,130 -17,158 -76,183c-44,18 -95,12 -134,-17l-28,-21l0,26c0,21 -5,25 -30,25l-30,0l0,-155z" id="svg_6" stroke="rgba(18, 18, 18, 0.58)"/>
   <path d="m2217,10236c-69,-26 -97,-66 -97,-143c0,-90 59,-147 155,-147c93,-1 157,60 157,149c0,108 -109,180 -215,141zm120,-61c34,-24 47,-76 29,-118c-17,-42 -41,-57 -94,-57c-58,0 -92,35 -92,95c0,37 5,51 26,70c32,29 97,34 131,10z" id="svg_7" stroke="rgba(18, 18, 18, 0.58)"/>
   <path d="m2747,10236c-69,-26 -97,-66 -97,-143c0,-90 59,-147 155,-147c93,-1 157,60 157,149c0,108 -109,180 -215,141zm120,-61c34,-24 47,-76 29,-118c-17,-42 -41,-57 -94,-57c-58,0 -92,35 -92,95c0,37 5,51 26,70c32,29 97,34 131,10z" id="svg_8" stroke="rgba(18, 18, 18, 0.58)"/>
   <path d="m2372,9818c-30,-30 -2,-86 37,-73c30,9 39,54 16,72c-23,16 -37,17 -53,1z" id="svg_9" stroke="rgba(18, 18, 18, 0.58)"/>
   <path d="m5312,9818c-30,-30 -2,-86 37,-73c30,9 39,54 16,72c-23,16 -37,17 -53,1z" id="svg_10" stroke="rgba(18, 18, 18, 0.58)"/>
   <path d="m1950,9580l0,-230l30,0l30,0l0,106c0,103 1,106 29,135c22,21 39,29 66,29c77,0 95,-34 95,-176l0,-94l30,0l30,0l0,110c0,124 -12,168 -56,196c-35,23 -118,24 -161,1l-33,-18l0,86l0,85l-30,0l-30,0l0,-230z" id="svg_11" stroke="rgba(18, 18, 18, 0.58)"/>
   <path d="m390,9565l0,-215l35,0l34,0l3,147l3,147l73,-123c53,-88 78,-121 90,-119c9,2 48,57 87,123l70,120l3,-148l3,-147l34,0l35,0l0,215l0,215l-28,0c-25,0 -36,-14 -111,-140c-46,-77 -87,-143 -91,-145c-5,-3 -47,60 -96,140c-79,132 -89,145 -115,145l-29,0l0,-215z" id="svg_12" stroke="rgba(18, 18, 18, 0.58)"/>
   <path d="m2634,9766c-36,-16 -64,-51 -64,-82c0,-12 12,-39 26,-60c20,-29 23,-39 13,-43c-8,-2 -31,-21 -51,-41c-30,-30 -38,-45 -38,-75c0,-98 149,-145 262,-82l38,21l25,-24c24,-23 25,-23 45,-5l21,19l-30,23l-30,23l20,45c22,49 20,60 -10,68c-16,4 -23,-2 -32,-30c-6,-19 -14,-33 -19,-31c-4,2 -29,23 -56,47c-33,31 -43,46 -33,49c8,3 29,20 47,38c51,51 41,113 -23,140c-42,17 -71,17 -111,0zm100,-52c28,-27 13,-65 -34,-89c-27,-14 -30,-14 -49,11c-37,47 -17,94 39,94c16,0 36,-7 44,-16zm-12,-211l58,-57l-28,-18c-62,-41 -172,-10 -172,48c0,27 49,84 71,84c8,0 39,-26 71,-57z" id="svg_13" stroke="rgba(18, 18, 18, 0.58)"/>
   <path d="m2980,9750l0,-30l125,0c112,0 127,-2 145,-20c11,-11 20,-29 20,-40c0,-11 -9,-29 -20,-40c-18,-18 -33,-20 -145,-20l-125,0l0,-30l0,-30l133,0c154,0 177,-9 177,-65c0,-56 -23,-65 -177,-65l-133,0l0,-30l0,-30l118,0c180,1 238,22 256,94c12,45 -11,101 -49,118l-25,11l25,25c14,14 26,34 27,46c7,107 -44,136 -241,136l-111,0l0,-30z" id="svg_14" stroke="rgba(18, 18, 18, 0.58)"/>
   <path d="m4810,9715c0,-32 -2,-35 -30,-35c-27,0 -30,-3 -30,-30c0,-27 3,-30 30,-30l30,0l0,-104c0,-96 2,-107 23,-132c20,-23 32,-28 75,-28c55,-1 76,11 66,37c-4,12 -18,17 -43,17c-55,0 -61,12 -61,117l0,93l45,0c43,0 45,1 45,30c0,29 -2,30 -45,30c-45,0 -45,0 -45,35c0,32 -2,35 -30,35c-28,0 -30,-3 -30,-35z" id="svg_15" stroke="rgba(18, 18, 18, 0.58)"/>
   <path d="m5060,9715c0,-32 -2,-35 -30,-35c-27,0 -30,-3 -30,-30c0,-27 3,-30 30,-30l30,0l0,-104c0,-96 2,-107 23,-132c20,-23 32,-28 75,-28c55,-1 76,11 66,37c-4,12 -18,17 -43,17c-55,0 -61,12 -61,117l0,93l45,0c43,0 45,1 45,30c0,29 -2,30 -45,30c-45,0 -45,0 -45,35c0,32 -2,35 -30,35c-28,0 -30,-3 -30,-35z" id="svg_16" stroke="rgba(18, 18, 18, 0.58)"/>
   <path d="m1024,9666c-61,-20 -65,-23 -52,-50c10,-23 12,-23 44,-10c54,22 111,18 139,-11c43,-42 34,-52 -55,-57c-90,-5 -128,-24 -145,-72c-21,-60 53,-122 134,-111c25,3 55,12 68,20c21,14 23,14 23,-5c0,-16 7,-20 30,-20l30,0l0,110c0,122 -13,168 -53,195c-34,22 -114,28 -163,11zm156,-196c0,-64 -121,-98 -156,-45c-16,24 -16,27 1,45c15,16 31,20 87,20c62,0 68,-2 68,-20z" id="svg_17" stroke="rgba(18, 18, 18, 0.58)"/>
   <path d="m1350,9515l0,-165l30,0l30,0l0,101c0,98 1,101 29,130c17,17 40,29 55,29c23,0 26,4 26,35c0,33 -2,35 -27,29c-16,-3 -40,-15 -55,-25l-28,-20l0,26c0,21 -5,25 -30,25l-30,0l0,-165z" id="svg_18" stroke="rgba(18, 18, 18, 0.58)"/>
   <path d="m1677,9666c-72,-26 -107,-76 -107,-151c0,-25 7,-59 15,-75c45,-87 181,-116 255,-53c35,29 37,39 10,53c-16,9 -26,7 -47,-9c-67,-54 -173,-2 -173,84c0,86 106,138 173,84c21,-16 31,-18 47,-9c11,6 20,14 20,19c0,15 -48,52 -81,61c-44,13 -66,12 -112,-4z" id="svg_19" stroke="rgba(18, 18, 18, 0.58)"/>
   <path d="m2370,9515l0,-165l30,0l30,0l0,165l0,165l-30,0l-30,0l0,-165z" id="svg_20" stroke="rgba(18, 18, 18, 0.58)"/>
   <path d="m3450,9515l0,-165l30,0l30,0l0,101c0,98 1,101 29,130c17,17 40,29 55,29c23,0 26,4 26,35c0,33 -2,35 -27,29c-16,-3 -40,-15 -55,-25l-28,-20l0,26c0,21 -5,25 -30,25l-30,0l0,-165z" id="svg_21" stroke="rgba(18, 18, 18, 0.58)"/>
   <path d="m3777,9666c-73,-27 -107,-76 -107,-153c0,-111 109,-185 227,-154c54,15 76,39 58,64c-12,17 -15,17 -44,3c-38,-20 -93,-20 -131,-1c-26,13 -50,42 -50,59c0,3 59,6 130,6l130,0l0,36c0,107 -109,178 -213,140zm127,-71c50,-46 37,-55 -74,-55c-65,0 -100,4 -100,11c0,6 13,24 29,40c39,39 105,41 145,4z" id="svg_22" stroke="rgba(18, 18, 18, 0.58)"/>
   <path d="m4057,9598c19,-46 51,-120 71,-165c33,-79 36,-83 67,-83c32,0 33,2 88,128c31,70 63,145 72,166l16,37l-31,-3c-30,-3 -34,-9 -82,-118c-27,-63 -53,-119 -57,-123c-5,-5 -32,48 -62,117c-53,124 -54,126 -86,126l-32,0l36,-82z" id="svg_23" stroke="rgba(18, 18, 18, 0.58)"/>
   <path d="m4497,9666c-73,-27 -107,-76 -107,-153c0,-111 109,-185 227,-154c54,15 76,39 58,64c-12,17 -15,17 -44,3c-38,-20 -93,-20 -131,-1c-26,13 -50,42 -50,59c0,3 59,6 130,6l130,0l0,36c0,107 -109,178 -213,140zm127,-71c50,-46 37,-55 -74,-55c-65,0 -100,4 -100,11c0,6 13,24 29,40c39,39 105,41 145,4z" id="svg_24" stroke="rgba(18, 18, 18, 0.58)"/>
   <path d="m5310,9515l0,-165l30,0l30,0l0,165l0,165l-30,0l-30,0l0,-165z" id="svg_25" stroke="rgba(18, 18, 18, 0.58)"/>
  </g>
  <rect fill="rgb(52, 58, 64)" height="25" id="svg_26" stroke="rgb(52, 58, 64)" width="590" x="5" y="8"/>
  <rect fill="rgb(52, 58, 64)" height="25" id="svg_27" stroke="rgb(52, 58, 64)" width="590" x="5" y="168"/>
  <rect fill="rgb(52, 58, 64)" height="135" id="svg_28" stroke="rgb(52, 58, 64)" width="25" x="570" y="33"/>
  <rect fill="rgb(52, 58, 64)" height="100" id="svg_29" stroke="rgb(52, 58, 64)" width="25" x="5" y="33"/>
 </g>
</svg>